# Blender v2.68 (sub 0) OBJ File: ''
# www.blender.org
o Icosphere
v 0.000000 -0.500000 0.000000
v -0.380422 -0.223610 -0.262863
v 0.145306 -0.223610 -0.425325
v 0.470227 -0.223608 0.000000
v 0.145306 -0.223610 0.425325
v -0.380422 -0.223610 0.262863
v -0.145306 0.223610 -0.425325
v 0.380422 0.223610 -0.262863
v 0.380422 0.223610 0.262863
v -0.145306 0.223610 0.425325
v -0.470227 0.223608 0.000000
v 0.000000 0.500000 0.000000
v -0.223605 -0.425327 -0.154506
v -0.138198 -0.262869 -0.404506
v 0.085408 -0.425327 -0.249998
v -0.223605 -0.425327 0.154506
v -0.447211 -0.262868 0.000000
v 0.361802 -0.262868 -0.249998
v 0.276392 -0.425326 0.000000
v 0.361802 -0.262868 0.249998
v 0.085408 -0.425327 0.249998
v -0.138198 -0.262869 0.404506
v -0.500000 0.000000 0.154506
v -0.500000 0.000000 -0.154506
v -0.309017 0.000000 -0.404508
v 0.000000 0.000000 -0.500000
v 0.309017 0.000000 -0.404508
v 0.500000 0.000000 -0.154506
v 0.500000 0.000000 0.154506
v 0.309017 0.000000 0.404508
v 0.000000 0.000000 0.500000
v -0.309017 0.000000 0.404508
v -0.361802 0.262868 -0.249998
v 0.138198 0.262869 -0.404506
v 0.447211 0.262868 0.000000
v 0.138198 0.262869 0.404506
v -0.361802 0.262868 0.249998
v -0.276392 0.425326 0.000000
v -0.085408 0.425327 -0.249998
v 0.223605 0.425327 -0.154506
v 0.223605 0.425327 0.154506
v -0.085408 0.425327 0.249998
vn 0.097419 0.943996 0.315248
vn 0.682113 0.677755 0.274536
vn -0.255795 0.946776 0.195408
vn -0.255795 0.946776 -0.195408
vn 0.097419 0.943996 -0.315248
vn 0.896465 0.344114 0.279170
vn 0.023536 0.330396 0.943549
vn -0.880067 0.343626 0.327723
vn -0.555303 0.335722 -0.760874
vn 0.515495 0.334989 -0.788700
vn 0.787946 0.129679 0.601933
vn -0.292882 0.126196 0.947784
vn -0.991252 0.131983 0.000000
vn -0.292882 0.126196 -0.947784
vn 0.787946 0.129679 -0.601933
vn 0.392075 -0.667046 0.633504
vn -0.453064 -0.668830 0.589406
vn -0.682113 -0.677755 -0.274536
vn 0.036647 -0.661746 -0.748832
vn 0.706517 -0.678906 -0.199801
vn -0.036647 0.661746 0.748832
vn 0.178714 0.795996 0.578318
vn 0.453064 0.668830 0.589406
vn 0.682113 0.677755 -0.274536
vn 0.587784 0.809018 -0.000000
vn 0.316754 0.948508 0.000000
vn -0.706517 0.678906 0.199801
vn -0.472557 0.803970 0.361003
vn -0.392075 0.667046 0.633504
vn -0.392075 0.667046 -0.633504
vn -0.472557 0.803970 -0.361003
vn -0.706517 0.678906 -0.199801
vn 0.453064 0.668830 -0.589406
vn 0.178714 0.795996 -0.578318
vn -0.036647 0.661746 -0.748832
vn 0.991252 -0.131983 0.000000
vn 0.980426 0.196887 0.000000
vn 0.896465 0.344114 -0.279170
vn 0.292882 -0.126196 0.947784
vn 0.289954 0.188428 0.938308
vn 0.515495 0.334989 0.788700
vn -0.787946 -0.129679 0.601933
vn -0.779635 0.193520 0.595584
vn -0.555303 0.335722 0.760874
vn -0.787946 -0.129679 -0.601933
vn -0.779635 0.193520 -0.595584
vn -0.880067 0.343626 -0.327723
vn 0.292882 -0.126196 -0.947784
vn 0.289954 0.188428 -0.938308
vn 0.023536 0.330396 -0.943549
vn 0.555303 -0.335722 0.760874
vn 0.779635 -0.193520 0.595584
vn 0.880067 -0.343626 0.327723
vn -0.515495 -0.334989 0.788700
vn -0.289954 -0.188428 0.938308
vn -0.023536 -0.330396 0.943549
vn -0.896465 -0.344114 -0.279170
vn -0.980426 -0.196887 0.000000
vn -0.896465 -0.344114 0.279170
vn -0.023536 -0.330396 -0.943549
vn -0.289954 -0.188428 -0.938308
vn -0.515495 -0.334989 -0.788700
vn 0.880067 -0.343626 -0.327723
vn 0.779635 -0.193520 -0.595584
vn 0.555303 -0.335722 -0.760874
vn 0.255795 -0.946776 0.195408
vn 0.472556 -0.803970 0.361003
vn 0.706517 -0.678906 0.199801
vn -0.097419 -0.943996 0.315248
vn -0.178713 -0.795996 0.578318
vn 0.036647 -0.661746 0.748832
vn -0.316754 -0.948508 0.000000
vn -0.587784 -0.809018 0.000000
vn -0.682113 -0.677755 0.274536
vn -0.097419 -0.943996 -0.315248
vn -0.178713 -0.795996 -0.578318
vn -0.453064 -0.668830 -0.589406
vn 0.255795 -0.946776 -0.195408
vn 0.472557 -0.803970 -0.361003
vn 0.392075 -0.667046 -0.633504
s off
f 1//1 15//1 13//1
f 2//2 17//2 13//2
f 1//3 19//3 15//3
f 1//4 21//4 19//4
f 1//5 16//5 21//5
f 2//6 24//6 17//6
f 3//7 26//7 14//7
f 4//8 28//8 18//8
f 5//9 30//9 20//9
f 6//10 32//10 22//10
f 2//11 25//11 24//11
f 3//12 27//12 26//12
f 4//13 29//13 28//13
f 5//14 31//14 30//14
f 6//15 23//15 32//15
f 7//16 39//16 33//16
f 8//17 40//17 34//17
f 9//18 41//18 35//18
f 10//19 42//19 36//19
f 11//20 38//20 37//20
f 15//21 3//21 14//21
f 15//22 14//22 13//22
f 13//23 14//23 2//23
f 17//24 6//24 16//24
f 17//25 16//25 13//25
f 13//26 16//26 1//26
f 19//27 4//27 18//27
f 19//28 18//28 15//28
f 15//29 18//29 3//29
f 21//30 5//30 20//30
f 21//31 20//31 19//31
f 19//32 20//32 4//32
f 16//33 6//33 22//33
f 16//34 22//34 21//34
f 21//35 22//35 5//35
f 24//36 11//36 23//36
f 24//37 23//37 17//37
f 17//38 23//38 6//38
f 26//39 7//39 25//39
f 26//40 25//40 14//40
f 14//41 25//41 2//41
f 28//42 8//42 27//42
f 28//43 27//43 18//43
f 18//44 27//44 3//44
f 30//45 9//45 29//45
f 30//46 29//46 20//46
f 20//47 29//47 4//47
f 32//48 10//48 31//48
f 32//49 31//49 22//49
f 22//50 31//50 5//50
f 25//51 7//51 33//51
f 25//52 33//52 24//52
f 24//53 33//53 11//53
f 27//54 8//54 34//54
f 27//55 34//55 26//55
f 26//56 34//56 7//56
f 29//57 9//57 35//57
f 29//58 35//58 28//58
f 28//59 35//59 8//59
f 31//60 10//60 36//60
f 31//61 36//61 30//61
f 30//62 36//62 9//62
f 23//63 11//63 37//63
f 23//64 37//64 32//64
f 32//65 37//65 10//65
f 39//66 12//66 38//66
f 39//67 38//67 33//67
f 33//68 38//68 11//68
f 40//69 12//69 39//69
f 40//70 39//70 34//70
f 34//71 39//71 7//71
f 41//72 12//72 40//72
f 41//73 40//73 35//73
f 35//74 40//74 8//74
f 42//75 12//75 41//75
f 42//76 41//76 36//76
f 36//77 41//77 9//77
f 38//78 12//78 42//78
f 38//79 42//79 37//79
f 37//80 42//80 10//80
